<?xml version="1.0" encoding="UTF-8" standalone="no"?>
<!DOCTYPE svg PUBLIC "-//W3C//DTD SVG 1.1//EN"
 "http://www.w3.org/Graphics/SVG/1.1/DTD/svg11.dtd">
<!-- Generated by graphviz version 2.40.1 (20161225.0304)
 -->
<!-- Title: DBs Pages: 1 -->
<svg width="660pt" height="278pt"
 viewBox="0.00 0.00 659.59 277.74" xmlns="http://www.w3.org/2000/svg" xmlns:xlink="http://www.w3.org/1999/xlink">
<g id="graph0" class="graph" transform="scale(1 1) rotate(0) translate(4 273.7401)">
<title>DBs</title>
<polygon fill="#ffffff" stroke="transparent" points="-4,4 -4,-273.7401 655.5928,-273.7401 655.5928,4 -4,4"/>
<!-- flat_kv -->
<g id="node1" class="node">
<title>flat_kv</title>
<g id="a_node1"><a xlink:href="./docs/kv-flat.md" xlink:title="Flat KV">
<ellipse fill="none" stroke="#000000" cx="132.7468" cy="-90" rx="39.7935" ry="18"/>
<text text-anchor="middle" x="132.7468" y="-86.3" font-family="Times,serif" font-size="14.00" fill="#000000">Flat KV</text>
</a>
</g>
</g>
<!-- btree -->
<g id="node2" class="node">
<title>btree</title>
<ellipse fill="none" stroke="#000000" cx="35.7468" cy="-18" rx="35.9954" ry="18"/>
<text text-anchor="middle" x="35.7468" y="-14.3" font-family="Times,serif" font-size="14.00" fill="#000000">B&#45;Tree</text>
</g>
<!-- flat_kv&#45;&gt;btree -->
<g id="edge1" class="edge">
<title>flat_kv&#45;&gt;btree</title>
<path fill="none" stroke="#000000" d="M111.6993,-74.3771C97.7833,-64.0477 79.3713,-50.381 64.1607,-39.0907"/>
<polygon fill="#000000" stroke="#000000" points="66.2044,-36.2489 56.0886,-33.099 62.0322,-41.8697 66.2044,-36.2489"/>
</g>
<!-- leveldb -->
<g id="node3" class="node">
<title>leveldb</title>
<ellipse fill="none" stroke="#000000" cx="132.7468" cy="-18" rx="42.7926" ry="18"/>
<text text-anchor="middle" x="132.7468" y="-14.3" font-family="Times,serif" font-size="14.00" fill="#000000">LevelDB</text>
</g>
<!-- flat_kv&#45;&gt;leveldb -->
<g id="edge2" class="edge">
<title>flat_kv&#45;&gt;leveldb</title>
<path fill="none" stroke="#000000" d="M132.7468,-71.8314C132.7468,-64.131 132.7468,-54.9743 132.7468,-46.4166"/>
<polygon fill="#000000" stroke="#000000" points="136.2469,-46.4132 132.7468,-36.4133 129.2469,-46.4133 136.2469,-46.4132"/>
</g>
<!-- badger -->
<g id="node4" class="node">
<title>badger</title>
<ellipse fill="none" stroke="#000000" cx="229.7468" cy="-18" rx="36.2938" ry="18"/>
<text text-anchor="middle" x="229.7468" y="-14.3" font-family="Times,serif" font-size="14.00" fill="#000000">Badger</text>
</g>
<!-- flat_kv&#45;&gt;badger -->
<g id="edge3" class="edge">
<title>flat_kv&#45;&gt;badger</title>
<path fill="none" stroke="#000000" d="M153.7944,-74.3771C167.7104,-64.0477 186.1224,-50.381 201.333,-39.0907"/>
<polygon fill="#000000" stroke="#000000" points="203.4614,-41.8697 209.4051,-33.099 199.2893,-36.2489 203.4614,-41.8697"/>
</g>
<!-- hie_kv -->
<g id="node5" class="node">
<title>hie_kv</title>
<g id="a_node5"><a xlink:href="./docs/kv-hierarchical.md" xlink:title="Hierarchical KV">
<ellipse fill="none" stroke="#000000" cx="174.7468" cy="-162" rx="69.5877" ry="18"/>
<text text-anchor="middle" x="174.7468" y="-158.3" font-family="Times,serif" font-size="14.00" fill="#000000">Hierarchical KV</text>
</a>
</g>
</g>
<!-- hie_kv&#45;&gt;flat_kv -->
<g id="edge4" class="edge">
<title>hie_kv&#45;&gt;flat_kv</title>
<path fill="none" stroke="#000000" d="M164.1485,-143.8314C159.2639,-135.4579 153.375,-125.3626 148.023,-116.1878"/>
<polygon fill="#000000" stroke="#000000" points="150.9692,-114.2919 142.9072,-107.4177 144.9227,-117.8191 150.9692,-114.2919"/>
</g>
<!-- bolt -->
<g id="node6" class="node">
<title>bolt</title>
<ellipse fill="none" stroke="#000000" cx="217.7468" cy="-90" rx="27" ry="18"/>
<text text-anchor="middle" x="217.7468" y="-86.3" font-family="Times,serif" font-size="14.00" fill="#000000">Bolt</text>
</g>
<!-- hie_kv&#45;&gt;bolt -->
<g id="edge5" class="edge">
<title>hie_kv&#45;&gt;bolt</title>
<path fill="none" stroke="#000000" d="M185.376,-144.2022C190.5024,-135.6186 196.7477,-125.1613 202.3801,-115.7303"/>
<polygon fill="#000000" stroke="#000000" points="205.4134,-117.4773 207.536,-107.0972 199.4036,-113.8881 205.4134,-117.4773"/>
</g>
<!-- strict_tuple -->
<g id="node7" class="node">
<title>strict_tuple</title>
<g id="a_node7"><a xlink:href="./docs/tuple-strict.md" xlink:title="Tuple store">
<ellipse fill="none" stroke="#000000" cx="174.7468" cy="-242.8701" rx="50.8918" ry="18"/>
<text text-anchor="middle" x="174.7468" y="-239.1701" font-family="Times,serif" font-size="14.00" fill="#000000">Tuple store</text>
</a>
</g>
</g>
<!-- strict_tuple&#45;&gt;hie_kv -->
<g id="edge6" class="edge">
<title>strict_tuple&#45;&gt;hie_kv</title>
<path fill="none" stroke="#000000" d="M174.7468,-224.5194C174.7468,-214.4898 174.7468,-201.8453 174.7468,-190.5565"/>
<polygon fill="#000000" stroke="#000000" points="178.2469,-190.278 174.7468,-180.278 171.2469,-190.2781 178.2469,-190.278"/>
</g>
<!-- legacy_nosql -->
<g id="node8" class="node">
<title>legacy_nosql</title>
<ellipse fill="none" stroke="#c0c0c0" cx="435.7468" cy="-242.8701" rx="43.2674" ry="26.7407"/>
<text text-anchor="middle" x="435.7468" y="-246.6701" font-family="Times,serif" font-size="14.00" fill="#000000">NoSQL</text>
<text text-anchor="middle" x="435.7468" y="-231.6701" font-family="Times,serif" font-size="14.00" fill="#000000">(legacy)</text>
</g>
<!-- legacy_mongo -->
<g id="node9" class="node">
<title>legacy_mongo</title>
<ellipse fill="none" stroke="#c0c0c0" cx="310.7468" cy="-162" rx="48.9926" ry="18"/>
<text text-anchor="middle" x="310.7468" y="-158.3" font-family="Times,serif" font-size="14.00" fill="#000000">MongoDB</text>
</g>
<!-- legacy_nosql&#45;&gt;legacy_mongo -->
<g id="edge7" class="edge">
<title>legacy_nosql&#45;&gt;legacy_mongo</title>
<path fill="none" stroke="#c0c0c0" d="M405.8062,-223.4997C387.0159,-211.3431 362.7782,-195.6623 343.4803,-183.1773"/>
<polygon fill="#c0c0c0" stroke="#c0c0c0" points="345.2959,-180.1833 334.9986,-177.6899 341.4935,-186.0606 345.2959,-180.1833"/>
</g>
<!-- legacy_elastic -->
<g id="node10" class="node">
<title>legacy_elastic</title>
<ellipse fill="none" stroke="#c0c0c0" cx="435.7468" cy="-162" rx="58.4896" ry="18"/>
<text text-anchor="middle" x="435.7468" y="-158.3" font-family="Times,serif" font-size="14.00" fill="#000000">ElasticSearch</text>
</g>
<!-- legacy_nosql&#45;&gt;legacy_elastic -->
<g id="edge8" class="edge">
<title>legacy_nosql&#45;&gt;legacy_elastic</title>
<path fill="none" stroke="#c0c0c0" d="M435.7468,-215.9415C435.7468,-207.6709 435.7468,-198.5487 435.7468,-190.1957"/>
<polygon fill="#c0c0c0" stroke="#c0c0c0" points="439.2469,-190.1488 435.7468,-180.1488 432.2469,-190.1489 439.2469,-190.1488"/>
</g>
<!-- legacy_ouch -->
<g id="node11" class="node">
<title>legacy_ouch</title>
<ellipse fill="none" stroke="#c0c0c0" cx="552.7468" cy="-162" rx="40.0939" ry="18"/>
<text text-anchor="middle" x="552.7468" y="-158.3" font-family="Times,serif" font-size="14.00" fill="#000000">go&#45;kivik</text>
</g>
<!-- legacy_nosql&#45;&gt;legacy_ouch -->
<g id="edge9" class="edge">
<title>legacy_nosql&#45;&gt;legacy_ouch</title>
<path fill="none" stroke="#c0c0c0" d="M464.6682,-222.8797C482.2307,-210.7406 504.6197,-195.2653 522.4296,-182.9551"/>
<polygon fill="#c0c0c0" stroke="#c0c0c0" points="524.5275,-185.7599 530.7636,-177.1947 520.5473,-180.0015 524.5275,-185.7599"/>
</g>
<!-- legacy_couch -->
<g id="node12" class="node">
<title>legacy_couch</title>
<ellipse fill="none" stroke="#c0c0c0" cx="497.7468" cy="-90" rx="46.2923" ry="18"/>
<text text-anchor="middle" x="497.7468" y="-86.3" font-family="Times,serif" font-size="14.00" fill="#000000">CouchDB</text>
</g>
<!-- legacy_ouch&#45;&gt;legacy_couch -->
<g id="edge10" class="edge">
<title>legacy_ouch&#45;&gt;legacy_couch</title>
<path fill="none" stroke="#c0c0c0" d="M539.7126,-144.937C533.0298,-136.1886 524.7537,-125.3545 517.3219,-115.6256"/>
<polygon fill="#c0c0c0" stroke="#c0c0c0" points="519.9214,-113.2627 511.0696,-107.4407 514.3587,-117.5121 519.9214,-113.2627"/>
</g>
<!-- legacy_pouch -->
<g id="node13" class="node">
<title>legacy_pouch</title>
<ellipse fill="none" stroke="#c0c0c0" cx="606.7468" cy="-90" rx="44.6926" ry="18"/>
<text text-anchor="middle" x="606.7468" y="-86.3" font-family="Times,serif" font-size="14.00" fill="#000000">PouchDB</text>
</g>
<!-- legacy_ouch&#45;&gt;legacy_pouch -->
<g id="edge11" class="edge">
<title>legacy_ouch&#45;&gt;legacy_pouch</title>
<path fill="none" stroke="#c0c0c0" d="M565.8187,-144.5708C572.3853,-135.8153 580.4655,-125.0418 587.7068,-115.3867"/>
<polygon fill="#c0c0c0" stroke="#c0c0c0" points="590.5953,-117.3687 593.7953,-107.2687 584.9953,-113.1687 590.5953,-117.3687"/>
</g>
</g>
</svg>
