<?xml version="1.0" encoding="UTF-8" standalone="no"?>
<!DOCTYPE svg PUBLIC "-//W3C//DTD SVG 1.1//EN"
 "http://www.w3.org/Graphics/SVG/1.1/DTD/svg11.dtd">
<!-- Generated by graphviz version 2.40.1 (20161225.0304)
 -->
<!-- Title: DBs Pages: 1 -->
<svg width="898pt" height="278pt"
 viewBox="0.00 0.00 898.14 277.74" xmlns="http://www.w3.org/2000/svg" xmlns:xlink="http://www.w3.org/1999/xlink">
<g id="graph0" class="graph" transform="scale(1 1) rotate(0) translate(4 273.7401)">
<title>DBs</title>
<polygon fill="#ffffff" stroke="transparent" points="-4,4 -4,-273.7401 894.1424,-273.7401 894.1424,4 -4,4"/>
<!-- flat_kv -->
<g id="node1" class="node">
<title>flat_kv</title>
<g id="a_node1"><a xlink:href="./docs/kv-flat.md" xlink:title="Flat KV">
<ellipse fill="#bbbbff" stroke="#bbbbff" cx="443.2964" cy="-90" rx="39.7935" ry="18"/>
<text text-anchor="middle" x="443.2964" y="-86.3" font-family="Times,serif" font-size="14.00" fill="#000000">Flat KV</text>
</a>
</g>
</g>
<!-- hie_kv -->
<g id="node2" class="node">
<title>hie_kv</title>
<g id="a_node2"><a xlink:href="./docs/kv-hierarchical.md" xlink:title="Hierarchical KV">
<ellipse fill="#bbbbff" stroke="#bbbbff" cx="354.2964" cy="-170.8701" rx="69.5877" ry="18"/>
<text text-anchor="middle" x="354.2964" y="-167.1701" font-family="Times,serif" font-size="14.00" fill="#000000">Hierarchical KV</text>
</a>
</g>
</g>
<!-- flat_kv&#45;&gt;hie_kv -->
<g id="edge1" class="edge">
<title>flat_kv&#45;&gt;hie_kv</title>
<path fill="none" stroke="#000000" d="M421.1448,-105.211C407.0616,-116.7153 389.1204,-132.7552 375.2771,-146.1015"/>
<polygon fill="#000000" stroke="#000000" points="372.7393,-143.6883 368.0585,-153.1931 377.6449,-148.6818 372.7393,-143.6883"/>
</g>
<!-- hie_kv&#45;&gt;flat_kv -->
<g id="edge6" class="edge">
<title>hie_kv&#45;&gt;flat_kv</title>
<path fill="none" stroke="#000000" stroke-dasharray="5,2" d="M378.7771,-153.7443C392.6407,-142.2774 409.6449,-127.0125 422.8058,-114.2956"/>
<polygon fill="#000000" stroke="#000000" points="425.3908,-116.6621 430.0578,-107.1505 420.478,-111.6757 425.3908,-116.6621"/>
</g>
<!-- strict_tuple -->
<g id="node6" class="node">
<title>strict_tuple</title>
<g id="a_node6"><a xlink:href="./docs/tuple-strict.md" xlink:title="Tuple store">
<ellipse fill="#bbbbff" stroke="#bbbbff" cx="286.2964" cy="-251.7401" rx="50.8918" ry="18"/>
<text text-anchor="middle" x="286.2964" y="-248.0401" font-family="Times,serif" font-size="14.00" fill="#000000">Tuple store</text>
</a>
</g>
</g>
<!-- hie_kv&#45;&gt;strict_tuple -->
<g id="edge5" class="edge">
<title>hie_kv&#45;&gt;strict_tuple</title>
<path fill="none" stroke="#000000" d="M339.205,-188.8177C329.8327,-199.9639 317.6497,-214.4527 307.3372,-226.717"/>
<polygon fill="#000000" stroke="#000000" points="304.6359,-224.4913 300.8789,-234.3977 309.9936,-228.9963 304.6359,-224.4913"/>
</g>
<!-- btree -->
<g id="node3" class="node">
<title>btree</title>
<ellipse fill="none" stroke="#000000" cx="346.2964" cy="-18" rx="35.9954" ry="18"/>
<text text-anchor="middle" x="346.2964" y="-14.3" font-family="Times,serif" font-size="14.00" fill="#000000">B&#45;Tree</text>
</g>
<!-- btree&#45;&gt;flat_kv -->
<g id="edge2" class="edge">
<title>btree&#45;&gt;flat_kv</title>
<path fill="none" stroke="#000000" d="M366.3949,-32.9184C380.254,-43.2056 398.8905,-57.0389 414.3459,-68.511"/>
<polygon fill="#000000" stroke="#000000" points="412.4386,-71.4541 422.5544,-74.6039 416.6108,-65.8333 412.4386,-71.4541"/>
</g>
<!-- leveldb -->
<g id="node4" class="node">
<title>leveldb</title>
<ellipse fill="none" stroke="#000000" cx="443.2964" cy="-18" rx="42.7926" ry="18"/>
<text text-anchor="middle" x="443.2964" y="-14.3" font-family="Times,serif" font-size="14.00" fill="#000000">LevelDB</text>
</g>
<!-- leveldb&#45;&gt;flat_kv -->
<g id="edge3" class="edge">
<title>leveldb&#45;&gt;flat_kv</title>
<path fill="none" stroke="#000000" d="M443.2964,-36.1686C443.2964,-43.869 443.2964,-53.0257 443.2964,-61.5834"/>
<polygon fill="#000000" stroke="#000000" points="439.7965,-61.5867 443.2964,-71.5867 446.7965,-61.5868 439.7965,-61.5867"/>
</g>
<!-- badger -->
<g id="node5" class="node">
<title>badger</title>
<ellipse fill="none" stroke="#000000" cx="540.2964" cy="-18" rx="36.2938" ry="18"/>
<text text-anchor="middle" x="540.2964" y="-14.3" font-family="Times,serif" font-size="14.00" fill="#000000">Badger</text>
</g>
<!-- badger&#45;&gt;flat_kv -->
<g id="edge4" class="edge">
<title>badger&#45;&gt;flat_kv</title>
<path fill="none" stroke="#000000" d="M519.7252,-33.2693C505.9299,-43.5092 487.5615,-57.1435 472.2895,-68.4794"/>
<polygon fill="#000000" stroke="#000000" points="470.116,-65.7338 464.1724,-74.5044 474.2882,-71.3546 470.116,-65.7338"/>
</g>
<!-- strict_tuple&#45;&gt;flat_kv -->
<g id="edge13" class="edge">
<title>strict_tuple&#45;&gt;flat_kv</title>
<path fill="none" stroke="#000000" stroke-dasharray="5,2" d="M328.3066,-241.64C366.9398,-231.4496 420.1599,-214.8191 433.2964,-197.7401 450.5778,-175.2722 450.9615,-141.8601 448.3632,-118.2107"/>
<polygon fill="#000000" stroke="#000000" points="451.8064,-117.5528 447.0096,-108.1061 444.8684,-118.4823 451.8064,-117.5528"/>
</g>
<!-- bolt -->
<g id="node7" class="node">
<title>bolt</title>
<ellipse fill="none" stroke="#000000" cx="277.2964" cy="-90" rx="27" ry="18"/>
<text text-anchor="middle" x="277.2964" y="-86.3" font-family="Times,serif" font-size="14.00" fill="#000000">Bolt</text>
</g>
<!-- bolt&#45;&gt;hie_kv -->
<g id="edge7" class="edge">
<title>bolt&#45;&gt;hie_kv</title>
<path fill="none" stroke="#000000" d="M291.7795,-105.211C302.6319,-116.6088 317.7231,-132.4586 330.3595,-145.7301"/>
<polygon fill="#000000" stroke="#000000" points="328.0349,-148.3643 337.4654,-153.1931 333.1045,-143.5373 328.0349,-148.3643"/>
</g>
<!-- bbolt -->
<g id="node8" class="node">
<title>bbolt</title>
<ellipse fill="none" stroke="#000000" cx="354.2964" cy="-90" rx="31.6951" ry="18"/>
<text text-anchor="middle" x="354.2964" y="-86.3" font-family="Times,serif" font-size="14.00" fill="#000000">BBolt</text>
</g>
<!-- bbolt&#45;&gt;hie_kv -->
<g id="edge8" class="edge">
<title>bbolt&#45;&gt;hie_kv</title>
<path fill="none" stroke="#000000" d="M354.2964,-108.3507C354.2964,-118.3802 354.2964,-131.0247 354.2964,-142.3136"/>
<polygon fill="#000000" stroke="#000000" points="350.7965,-142.592 354.2964,-152.592 357.7965,-142.592 350.7965,-142.592"/>
</g>
<!-- sql_tuple -->
<g id="node9" class="node">
<title>sql_tuple</title>
<g id="a_node9"><a xlink:href="./docs/sql-tuple.md" xlink:title="SQL">
<ellipse fill="none" stroke="#000000" cx="125.2964" cy="-170.8701" rx="27.0966" ry="18"/>
<text text-anchor="middle" x="125.2964" y="-167.1701" font-family="Times,serif" font-size="14.00" fill="#000000">SQL</text>
</a>
</g>
</g>
<!-- sql_tuple&#45;&gt;strict_tuple -->
<g id="edge9" class="edge">
<title>sql_tuple&#45;&gt;strict_tuple</title>
<path fill="none" stroke="#000000" d="M142.6763,-185.1219C148.4115,-189.471 154.9508,-194.069 161.2964,-197.7401 186.6767,-212.4235 216.8069,-225.5549 241.1262,-235.1913"/>
<polygon fill="#000000" stroke="#000000" points="239.8907,-238.4662 250.4789,-238.8395 242.4345,-231.9448 239.8907,-238.4662"/>
</g>
<!-- mysql -->
<g id="node10" class="node">
<title>mysql</title>
<ellipse fill="none" stroke="#000000" cx="40.2964" cy="-90" rx="40.0939" ry="18"/>
<text text-anchor="middle" x="40.2964" y="-86.3" font-family="Times,serif" font-size="14.00" fill="#000000">MySQL</text>
</g>
<!-- mysql&#45;&gt;sql_tuple -->
<g id="edge10" class="edge">
<title>mysql&#45;&gt;sql_tuple</title>
<path fill="none" stroke="#000000" d="M57.4974,-106.3653C70.3496,-118.593 88.0548,-135.4379 102.1493,-148.8476"/>
<polygon fill="#000000" stroke="#000000" points="99.8969,-151.5357 109.5543,-155.8928 104.722,-146.4642 99.8969,-151.5357"/>
</g>
<!-- postgres -->
<g id="node11" class="node">
<title>postgres</title>
<ellipse fill="none" stroke="#000000" cx="152.2964" cy="-90" rx="53.8905" ry="18"/>
<text text-anchor="middle" x="152.2964" y="-86.3" font-family="Times,serif" font-size="14.00" fill="#000000">PostgreSQL</text>
</g>
<!-- postgres&#45;&gt;sql_tuple -->
<g id="edge11" class="edge">
<title>postgres&#45;&gt;sql_tuple</title>
<path fill="none" stroke="#000000" d="M146.3042,-107.9477C142.8196,-118.3849 138.3563,-131.7532 134.4407,-143.4813"/>
<polygon fill="#000000" stroke="#000000" points="131.026,-142.6571 131.179,-153.2508 137.6657,-144.8739 131.026,-142.6571"/>
</g>
<!-- datastore -->
<g id="node12" class="node">
<title>datastore</title>
<ellipse fill="none" stroke="#000000" cx="218.2964" cy="-170.8701" rx="48.1667" ry="26.7407"/>
<text text-anchor="middle" x="218.2964" y="-174.6701" font-family="Times,serif" font-size="14.00" fill="#000000">Google</text>
<text text-anchor="middle" x="218.2964" y="-159.6701" font-family="Times,serif" font-size="14.00" fill="#000000">Datastore</text>
</g>
<!-- datastore&#45;&gt;strict_tuple -->
<g id="edge12" class="edge">
<title>datastore&#45;&gt;strict_tuple</title>
<path fill="none" stroke="#000000" d="M239.0682,-195.5732C247.3069,-205.3712 256.7733,-216.6293 265.0575,-226.4814"/>
<polygon fill="#000000" stroke="#000000" points="262.5706,-228.9622 271.6852,-234.3635 267.9283,-224.4572 262.5706,-228.9622"/>
</g>
<!-- legacy_nosql -->
<g id="node13" class="node">
<title>legacy_nosql</title>
<ellipse fill="#dddddd" stroke="#dddddd" cx="674.2964" cy="-170.8701" rx="43.2674" ry="26.7407"/>
<text text-anchor="middle" x="674.2964" y="-174.6701" font-family="Times,serif" font-size="14.00" fill="#000000">NoSQL</text>
<text text-anchor="middle" x="674.2964" y="-159.6701" font-family="Times,serif" font-size="14.00" fill="#000000">(legacy)</text>
</g>
<!-- legacy_mongo -->
<g id="node14" class="node">
<title>legacy_mongo</title>
<ellipse fill="none" stroke="#c0c0c0" cx="549.2964" cy="-90" rx="48.9926" ry="18"/>
<text text-anchor="middle" x="549.2964" y="-86.3" font-family="Times,serif" font-size="14.00" fill="#000000">MongoDB</text>
</g>
<!-- legacy_mongo&#45;&gt;legacy_nosql -->
<g id="edge14" class="edge">
<title>legacy_mongo&#45;&gt;legacy_nosql</title>
<path fill="none" stroke="#c0c0c0" d="M573.6944,-105.7845C591.3502,-117.2071 615.5659,-132.8737 635.8146,-145.9739"/>
<polygon fill="#c0c0c0" stroke="#c0c0c0" points="633.9218,-148.9179 644.2191,-151.4112 637.7242,-143.0406 633.9218,-148.9179"/>
</g>
<!-- legacy_elastic -->
<g id="node15" class="node">
<title>legacy_elastic</title>
<ellipse fill="none" stroke="#c0c0c0" cx="674.2964" cy="-90" rx="58.4896" ry="18"/>
<text text-anchor="middle" x="674.2964" y="-86.3" font-family="Times,serif" font-size="14.00" fill="#000000">ElasticSearch</text>
</g>
<!-- legacy_elastic&#45;&gt;legacy_nosql -->
<g id="edge15" class="edge">
<title>legacy_elastic&#45;&gt;legacy_nosql</title>
<path fill="none" stroke="#c0c0c0" d="M674.2964,-108.3507C674.2964,-115.9205 674.2964,-124.98 674.2964,-133.822"/>
<polygon fill="#c0c0c0" stroke="#c0c0c0" points="670.7965,-133.9994 674.2964,-143.9994 677.7965,-133.9995 670.7965,-133.9994"/>
</g>
<!-- legacy_ouch -->
<g id="node16" class="node">
<title>legacy_ouch</title>
<ellipse fill="none" stroke="#c0c0c0" cx="791.2964" cy="-90" rx="40.0939" ry="18"/>
<text text-anchor="middle" x="791.2964" y="-86.3" font-family="Times,serif" font-size="14.00" fill="#000000">go&#45;kivik</text>
</g>
<!-- legacy_ouch&#45;&gt;legacy_nosql -->
<g id="edge16" class="edge">
<title>legacy_ouch&#45;&gt;legacy_nosql</title>
<path fill="none" stroke="#c0c0c0" d="M769.2896,-105.211C753.1017,-116.4001 730.7066,-131.8795 711.7268,-144.9983"/>
<polygon fill="#c0c0c0" stroke="#c0c0c0" points="709.5173,-142.2707 703.2812,-150.8359 713.4975,-148.0291 709.5173,-142.2707"/>
</g>
<!-- legacy_couch -->
<g id="node17" class="node">
<title>legacy_couch</title>
<ellipse fill="none" stroke="#c0c0c0" cx="736.2964" cy="-18" rx="46.2923" ry="18"/>
<text text-anchor="middle" x="736.2964" y="-14.3" font-family="Times,serif" font-size="14.00" fill="#000000">CouchDB</text>
</g>
<!-- legacy_couch&#45;&gt;legacy_ouch -->
<g id="edge17" class="edge">
<title>legacy_couch&#45;&gt;legacy_ouch</title>
<path fill="none" stroke="#c0c0c0" d="M749.6104,-35.4292C756.2986,-44.1847 764.5284,-54.9582 771.9038,-64.6133"/>
<polygon fill="#c0c0c0" stroke="#c0c0c0" points="769.2533,-66.9092 778.1051,-72.7313 774.816,-62.6599 769.2533,-66.9092"/>
</g>
<!-- legacy_pouch -->
<g id="node18" class="node">
<title>legacy_pouch</title>
<ellipse fill="none" stroke="#c0c0c0" cx="845.2964" cy="-18" rx="44.6926" ry="18"/>
<text text-anchor="middle" x="845.2964" y="-14.3" font-family="Times,serif" font-size="14.00" fill="#000000">PouchDB</text>
</g>
<!-- legacy_pouch&#45;&gt;legacy_ouch -->
<g id="edge18" class="edge">
<title>legacy_pouch&#45;&gt;legacy_ouch</title>
<path fill="none" stroke="#c0c0c0" d="M832.2245,-35.4292C825.6579,-44.1847 817.5777,-54.9582 810.3364,-64.6133"/>
<polygon fill="#c0c0c0" stroke="#c0c0c0" points="807.448,-62.6313 804.2479,-72.7313 813.048,-66.8313 807.448,-62.6313"/>
</g>
</g>
</svg>
