<?xml version="1.0" encoding="UTF-8" standalone="no"?>
<!DOCTYPE svg PUBLIC "-//W3C//DTD SVG 1.1//EN"
 "http://www.w3.org/Graphics/SVG/1.1/DTD/svg11.dtd">
<!-- Generated by graphviz version 2.40.1 (20161225.0304)
 -->
<!-- Title: DBs Pages: 1 -->
<svg width="813pt" height="278pt"
 viewBox="0.00 0.00 813.14 277.74" xmlns="http://www.w3.org/2000/svg" xmlns:xlink="http://www.w3.org/1999/xlink">
<g id="graph0" class="graph" transform="scale(1 1) rotate(0) translate(4 273.7401)">
<title>DBs</title>
<polygon fill="#ffffff" stroke="transparent" points="-4,4 -4,-273.7401 809.1424,-273.7401 809.1424,4 -4,4"/>
<!-- flat_kv -->
<g id="node1" class="node">
<title>flat_kv</title>
<g id="a_node1"><a xlink:href="./docs/kv-flat.md" xlink:title="Flat KV">
<ellipse fill="#bbbbff" stroke="#bbbbff" cx="358.2964" cy="-90" rx="39.7935" ry="18"/>
<text text-anchor="middle" x="358.2964" y="-86.3" font-family="Times,serif" font-size="14.00" fill="#000000">Flat KV</text>
</a>
</g>
</g>
<!-- hie_kv -->
<g id="node2" class="node">
<title>hie_kv</title>
<g id="a_node2"><a xlink:href="./docs/kv-hierarchical.md" xlink:title="Hierarchical KV">
<ellipse fill="#bbbbff" stroke="#bbbbff" cx="316.2964" cy="-170.8701" rx="69.5877" ry="18"/>
<text text-anchor="middle" x="316.2964" y="-167.1701" font-family="Times,serif" font-size="14.00" fill="#000000">Hierarchical KV</text>
</a>
</g>
</g>
<!-- flat_kv&#45;&gt;hie_kv -->
<g id="edge1" class="edge">
<title>flat_kv&#45;&gt;hie_kv</title>
<path fill="none" stroke="#000000" d="M343.7533,-107.1505C337.1402,-117.6868 329.7418,-131.4229 324.1114,-143.4427"/>
<polygon fill="#000000" stroke="#000000" points="320.8952,-142.0615 320.0237,-152.6204 327.2896,-144.9095 320.8952,-142.0615"/>
</g>
<!-- hie_kv&#45;&gt;flat_kv -->
<g id="edge6" class="edge">
<title>hie_kv&#45;&gt;flat_kv</title>
<path fill="none" stroke="#000000" stroke-dasharray="5,2" d="M331.133,-153.2508C337.6751,-142.7709 344.9439,-129.2515 350.4926,-117.4035"/>
<polygon fill="#000000" stroke="#000000" points="353.8321,-118.5073 354.6953,-107.9477 347.4355,-115.6643 353.8321,-118.5073"/>
</g>
<!-- strict_tuple -->
<g id="node6" class="node">
<title>strict_tuple</title>
<g id="a_node6"><a xlink:href="./docs/tuple-strict.md" xlink:title="Tuple store">
<ellipse fill="#bbbbff" stroke="#bbbbff" cx="248.2964" cy="-251.7401" rx="50.8918" ry="18"/>
<text text-anchor="middle" x="248.2964" y="-248.0401" font-family="Times,serif" font-size="14.00" fill="#000000">Tuple store</text>
</a>
</g>
</g>
<!-- hie_kv&#45;&gt;strict_tuple -->
<g id="edge5" class="edge">
<title>hie_kv&#45;&gt;strict_tuple</title>
<path fill="none" stroke="#000000" d="M301.205,-188.8177C291.8327,-199.9639 279.6497,-214.4527 269.3372,-226.717"/>
<polygon fill="#000000" stroke="#000000" points="266.6359,-224.4913 262.8789,-234.3977 271.9936,-228.9963 266.6359,-224.4913"/>
</g>
<!-- btree -->
<g id="node3" class="node">
<title>btree</title>
<ellipse fill="none" stroke="#000000" cx="261.2964" cy="-18" rx="35.9954" ry="18"/>
<text text-anchor="middle" x="261.2964" y="-14.3" font-family="Times,serif" font-size="14.00" fill="#000000">B&#45;Tree</text>
</g>
<!-- btree&#45;&gt;flat_kv -->
<g id="edge2" class="edge">
<title>btree&#45;&gt;flat_kv</title>
<path fill="none" stroke="#000000" d="M281.3949,-32.9184C295.254,-43.2056 313.8905,-57.0389 329.3459,-68.511"/>
<polygon fill="#000000" stroke="#000000" points="327.4386,-71.4541 337.5544,-74.6039 331.6108,-65.8333 327.4386,-71.4541"/>
</g>
<!-- leveldb -->
<g id="node4" class="node">
<title>leveldb</title>
<ellipse fill="none" stroke="#000000" cx="358.2964" cy="-18" rx="42.7926" ry="18"/>
<text text-anchor="middle" x="358.2964" y="-14.3" font-family="Times,serif" font-size="14.00" fill="#000000">LevelDB</text>
</g>
<!-- leveldb&#45;&gt;flat_kv -->
<g id="edge3" class="edge">
<title>leveldb&#45;&gt;flat_kv</title>
<path fill="none" stroke="#000000" d="M358.2964,-36.1686C358.2964,-43.869 358.2964,-53.0257 358.2964,-61.5834"/>
<polygon fill="#000000" stroke="#000000" points="354.7965,-61.5867 358.2964,-71.5867 361.7965,-61.5868 354.7965,-61.5867"/>
</g>
<!-- badger -->
<g id="node5" class="node">
<title>badger</title>
<ellipse fill="none" stroke="#000000" cx="455.2964" cy="-18" rx="36.2938" ry="18"/>
<text text-anchor="middle" x="455.2964" y="-14.3" font-family="Times,serif" font-size="14.00" fill="#000000">Badger</text>
</g>
<!-- badger&#45;&gt;flat_kv -->
<g id="edge4" class="edge">
<title>badger&#45;&gt;flat_kv</title>
<path fill="none" stroke="#000000" d="M434.7252,-33.2693C420.9299,-43.5092 402.5615,-57.1435 387.2895,-68.4794"/>
<polygon fill="#000000" stroke="#000000" points="385.116,-65.7338 379.1724,-74.5044 389.2882,-71.3546 385.116,-65.7338"/>
</g>
<!-- strict_tuple&#45;&gt;flat_kv -->
<g id="edge12" class="edge">
<title>strict_tuple&#45;&gt;flat_kv</title>
<path fill="none" stroke="#000000" stroke-dasharray="5,2" d="M291.0251,-241.8017C329.8889,-231.7945 383.0029,-215.3528 395.2964,-197.7401 412.8616,-172.5747 395.5377,-138.3312 379.1671,-115.2615"/>
<polygon fill="#000000" stroke="#000000" points="381.7976,-112.9341 373.0144,-107.0092 376.1857,-117.1183 381.7976,-112.9341"/>
</g>
<!-- bolt -->
<g id="node7" class="node">
<title>bolt</title>
<ellipse fill="none" stroke="#000000" cx="273.2964" cy="-90" rx="27" ry="18"/>
<text text-anchor="middle" x="273.2964" y="-86.3" font-family="Times,serif" font-size="14.00" fill="#000000">Bolt</text>
</g>
<!-- bolt&#45;&gt;hie_kv -->
<g id="edge7" class="edge">
<title>bolt&#45;&gt;hie_kv</title>
<path fill="none" stroke="#000000" d="M282.4156,-107.1505C288.1127,-117.865 295.5693,-131.8885 302.0363,-144.0511"/>
<polygon fill="#000000" stroke="#000000" points="298.9582,-145.7173 306.7433,-152.9035 305.1388,-142.4309 298.9582,-145.7173"/>
</g>
<!-- sql_tuple -->
<g id="node8" class="node">
<title>sql_tuple</title>
<g id="a_node8"><a xlink:href="./docs/sql-tuple.md" xlink:title="SQL">
<ellipse fill="none" stroke="#000000" cx="87.2964" cy="-170.8701" rx="27.0966" ry="18"/>
<text text-anchor="middle" x="87.2964" y="-167.1701" font-family="Times,serif" font-size="14.00" fill="#000000">SQL</text>
</a>
</g>
</g>
<!-- sql_tuple&#45;&gt;strict_tuple -->
<g id="edge8" class="edge">
<title>sql_tuple&#45;&gt;strict_tuple</title>
<path fill="none" stroke="#000000" d="M104.6763,-185.1219C110.4115,-189.471 116.9508,-194.069 123.2964,-197.7401 148.6767,-212.4235 178.8069,-225.5549 203.1262,-235.1913"/>
<polygon fill="#000000" stroke="#000000" points="201.8907,-238.4662 212.4789,-238.8395 204.4345,-231.9448 201.8907,-238.4662"/>
</g>
<!-- mysql -->
<g id="node9" class="node">
<title>mysql</title>
<ellipse fill="none" stroke="#000000" cx="40.2964" cy="-90" rx="40.0939" ry="18"/>
<text text-anchor="middle" x="40.2964" y="-86.3" font-family="Times,serif" font-size="14.00" fill="#000000">MySQL</text>
</g>
<!-- mysql&#45;&gt;sql_tuple -->
<g id="edge9" class="edge">
<title>mysql&#45;&gt;sql_tuple</title>
<path fill="none" stroke="#000000" d="M50.4947,-107.5476C56.8629,-118.505 65.1743,-132.8058 72.2868,-145.0439"/>
<polygon fill="#000000" stroke="#000000" points="69.3892,-147.0237 77.4401,-153.9109 75.4413,-143.5063 69.3892,-147.0237"/>
</g>
<!-- postgres -->
<g id="node10" class="node">
<title>postgres</title>
<ellipse fill="none" stroke="#000000" cx="152.2964" cy="-90" rx="53.8905" ry="18"/>
<text text-anchor="middle" x="152.2964" y="-86.3" font-family="Times,serif" font-size="14.00" fill="#000000">PostgreSQL</text>
</g>
<!-- postgres&#45;&gt;sql_tuple -->
<g id="edge10" class="edge">
<title>postgres&#45;&gt;sql_tuple</title>
<path fill="none" stroke="#000000" d="M138.1924,-107.5476C128.9425,-119.0559 116.7282,-134.2523 106.5838,-146.8735"/>
<polygon fill="#000000" stroke="#000000" points="103.8051,-144.7439 100.2684,-154.731 109.2612,-149.1293 103.8051,-144.7439"/>
</g>
<!-- datastore -->
<g id="node11" class="node">
<title>datastore</title>
<ellipse fill="none" stroke="#000000" cx="180.2964" cy="-170.8701" rx="48.1667" ry="26.7407"/>
<text text-anchor="middle" x="180.2964" y="-174.6701" font-family="Times,serif" font-size="14.00" fill="#000000">Google</text>
<text text-anchor="middle" x="180.2964" y="-159.6701" font-family="Times,serif" font-size="14.00" fill="#000000">Datastore</text>
</g>
<!-- datastore&#45;&gt;strict_tuple -->
<g id="edge11" class="edge">
<title>datastore&#45;&gt;strict_tuple</title>
<path fill="none" stroke="#000000" d="M201.0682,-195.5732C209.3069,-205.3712 218.7733,-216.6293 227.0575,-226.4814"/>
<polygon fill="#000000" stroke="#000000" points="224.5706,-228.9622 233.6852,-234.3635 229.9283,-224.4572 224.5706,-228.9622"/>
</g>
<!-- legacy_nosql -->
<g id="node12" class="node">
<title>legacy_nosql</title>
<ellipse fill="#dddddd" stroke="#dddddd" cx="589.2964" cy="-170.8701" rx="43.2674" ry="26.7407"/>
<text text-anchor="middle" x="589.2964" y="-174.6701" font-family="Times,serif" font-size="14.00" fill="#000000">NoSQL</text>
<text text-anchor="middle" x="589.2964" y="-159.6701" font-family="Times,serif" font-size="14.00" fill="#000000">(legacy)</text>
</g>
<!-- legacy_mongo -->
<g id="node13" class="node">
<title>legacy_mongo</title>
<ellipse fill="none" stroke="#c0c0c0" cx="464.2964" cy="-90" rx="48.9926" ry="18"/>
<text text-anchor="middle" x="464.2964" y="-86.3" font-family="Times,serif" font-size="14.00" fill="#000000">MongoDB</text>
</g>
<!-- legacy_mongo&#45;&gt;legacy_nosql -->
<g id="edge13" class="edge">
<title>legacy_mongo&#45;&gt;legacy_nosql</title>
<path fill="none" stroke="#c0c0c0" d="M488.6944,-105.7845C506.3502,-117.2071 530.5659,-132.8737 550.8146,-145.9739"/>
<polygon fill="#c0c0c0" stroke="#c0c0c0" points="548.9218,-148.9179 559.2191,-151.4112 552.7242,-143.0406 548.9218,-148.9179"/>
</g>
<!-- legacy_elastic -->
<g id="node14" class="node">
<title>legacy_elastic</title>
<ellipse fill="none" stroke="#c0c0c0" cx="589.2964" cy="-90" rx="58.4896" ry="18"/>
<text text-anchor="middle" x="589.2964" y="-86.3" font-family="Times,serif" font-size="14.00" fill="#000000">ElasticSearch</text>
</g>
<!-- legacy_elastic&#45;&gt;legacy_nosql -->
<g id="edge14" class="edge">
<title>legacy_elastic&#45;&gt;legacy_nosql</title>
<path fill="none" stroke="#c0c0c0" d="M589.2964,-108.3507C589.2964,-115.9205 589.2964,-124.98 589.2964,-133.822"/>
<polygon fill="#c0c0c0" stroke="#c0c0c0" points="585.7965,-133.9994 589.2964,-143.9994 592.7965,-133.9995 585.7965,-133.9994"/>
</g>
<!-- legacy_ouch -->
<g id="node15" class="node">
<title>legacy_ouch</title>
<ellipse fill="none" stroke="#c0c0c0" cx="706.2964" cy="-90" rx="40.0939" ry="18"/>
<text text-anchor="middle" x="706.2964" y="-86.3" font-family="Times,serif" font-size="14.00" fill="#000000">go&#45;kivik</text>
</g>
<!-- legacy_ouch&#45;&gt;legacy_nosql -->
<g id="edge15" class="edge">
<title>legacy_ouch&#45;&gt;legacy_nosql</title>
<path fill="none" stroke="#c0c0c0" d="M684.2896,-105.211C668.1017,-116.4001 645.7066,-131.8795 626.7268,-144.9983"/>
<polygon fill="#c0c0c0" stroke="#c0c0c0" points="624.5173,-142.2707 618.2812,-150.8359 628.4975,-148.0291 624.5173,-142.2707"/>
</g>
<!-- legacy_couch -->
<g id="node16" class="node">
<title>legacy_couch</title>
<ellipse fill="none" stroke="#c0c0c0" cx="651.2964" cy="-18" rx="46.2923" ry="18"/>
<text text-anchor="middle" x="651.2964" y="-14.3" font-family="Times,serif" font-size="14.00" fill="#000000">CouchDB</text>
</g>
<!-- legacy_couch&#45;&gt;legacy_ouch -->
<g id="edge16" class="edge">
<title>legacy_couch&#45;&gt;legacy_ouch</title>
<path fill="none" stroke="#c0c0c0" d="M664.6104,-35.4292C671.2986,-44.1847 679.5284,-54.9582 686.9038,-64.6133"/>
<polygon fill="#c0c0c0" stroke="#c0c0c0" points="684.2533,-66.9092 693.1051,-72.7313 689.816,-62.6599 684.2533,-66.9092"/>
</g>
<!-- legacy_pouch -->
<g id="node17" class="node">
<title>legacy_pouch</title>
<ellipse fill="none" stroke="#c0c0c0" cx="760.2964" cy="-18" rx="44.6926" ry="18"/>
<text text-anchor="middle" x="760.2964" y="-14.3" font-family="Times,serif" font-size="14.00" fill="#000000">PouchDB</text>
</g>
<!-- legacy_pouch&#45;&gt;legacy_ouch -->
<g id="edge17" class="edge">
<title>legacy_pouch&#45;&gt;legacy_ouch</title>
<path fill="none" stroke="#c0c0c0" d="M747.2245,-35.4292C740.6579,-44.1847 732.5777,-54.9582 725.3364,-64.6133"/>
<polygon fill="#c0c0c0" stroke="#c0c0c0" points="722.448,-62.6313 719.2479,-72.7313 728.048,-66.8313 722.448,-62.6313"/>
</g>
</g>
</svg>
