<?xml version="1.0" encoding="UTF-8" standalone="no"?>
<!DOCTYPE svg PUBLIC "-//W3C//DTD SVG 1.1//EN"
 "http://www.w3.org/Graphics/SVG/1.1/DTD/svg11.dtd">
<!-- Generated by graphviz version 2.40.1 (20161225.0304)
 -->
<!-- Title: DBs Pages: 1 -->
<svg width="882pt" height="295pt"
 viewBox="0.00 0.00 881.59 295.48" xmlns="http://www.w3.org/2000/svg" xmlns:xlink="http://www.w3.org/1999/xlink">
<g id="graph0" class="graph" transform="scale(1 1) rotate(0) translate(4 291.4802)">
<title>DBs</title>
<polygon fill="#ffffff" stroke="transparent" points="-4,4 -4,-291.4802 877.5928,-291.4802 877.5928,4 -4,4"/>
<!-- flat_kv -->
<g id="node1" class="node">
<title>flat_kv</title>
<g id="a_node1"><a xlink:href="./docs/kv-flat.md" xlink:title="Flat KV">
<ellipse fill="#bbbbff" stroke="#bbbbff" cx="132.7468" cy="-90" rx="39.7935" ry="18"/>
<text text-anchor="middle" x="132.7468" y="-86.3" font-family="Times,serif" font-size="14.00" fill="#000000">Flat KV</text>
</a>
</g>
</g>
<!-- btree -->
<g id="node2" class="node">
<title>btree</title>
<ellipse fill="none" stroke="#000000" cx="35.7468" cy="-18" rx="35.9954" ry="18"/>
<text text-anchor="middle" x="35.7468" y="-14.3" font-family="Times,serif" font-size="14.00" fill="#000000">B&#45;Tree</text>
</g>
<!-- flat_kv&#45;&gt;btree -->
<g id="edge1" class="edge">
<title>flat_kv&#45;&gt;btree</title>
<path fill="none" stroke="#000000" d="M111.6993,-74.3771C97.7833,-64.0477 79.3713,-50.381 64.1607,-39.0907"/>
<polygon fill="#000000" stroke="#000000" points="66.2044,-36.2489 56.0886,-33.099 62.0322,-41.8697 66.2044,-36.2489"/>
</g>
<!-- leveldb -->
<g id="node3" class="node">
<title>leveldb</title>
<ellipse fill="none" stroke="#000000" cx="132.7468" cy="-18" rx="42.7926" ry="18"/>
<text text-anchor="middle" x="132.7468" y="-14.3" font-family="Times,serif" font-size="14.00" fill="#000000">LevelDB</text>
</g>
<!-- flat_kv&#45;&gt;leveldb -->
<g id="edge2" class="edge">
<title>flat_kv&#45;&gt;leveldb</title>
<path fill="none" stroke="#000000" d="M132.7468,-71.8314C132.7468,-64.131 132.7468,-54.9743 132.7468,-46.4166"/>
<polygon fill="#000000" stroke="#000000" points="136.2469,-46.4132 132.7468,-36.4133 129.2469,-46.4133 136.2469,-46.4132"/>
</g>
<!-- badger -->
<g id="node4" class="node">
<title>badger</title>
<ellipse fill="none" stroke="#000000" cx="229.7468" cy="-18" rx="36.2938" ry="18"/>
<text text-anchor="middle" x="229.7468" y="-14.3" font-family="Times,serif" font-size="14.00" fill="#000000">Badger</text>
</g>
<!-- flat_kv&#45;&gt;badger -->
<g id="edge3" class="edge">
<title>flat_kv&#45;&gt;badger</title>
<path fill="none" stroke="#000000" d="M153.7944,-74.3771C167.7104,-64.0477 186.1224,-50.381 201.333,-39.0907"/>
<polygon fill="#000000" stroke="#000000" points="203.4614,-41.8697 209.4051,-33.099 199.2893,-36.2489 203.4614,-41.8697"/>
</g>
<!-- hie_kv -->
<g id="node5" class="node">
<title>hie_kv</title>
<g id="a_node5"><a xlink:href="./docs/kv-hierarchical.md" xlink:title="Hierarchical KV">
<ellipse fill="#bbbbff" stroke="#bbbbff" cx="209.7468" cy="-170.8701" rx="69.5877" ry="18"/>
<text text-anchor="middle" x="209.7468" y="-167.1701" font-family="Times,serif" font-size="14.00" fill="#000000">Hierarchical KV</text>
</a>
</g>
</g>
<!-- hie_kv&#45;&gt;flat_kv -->
<g id="edge4" class="edge">
<title>hie_kv&#45;&gt;flat_kv</title>
<path fill="none" stroke="#000000" d="M193.039,-153.3225C182.1236,-141.8584 167.7235,-126.7346 155.7338,-114.1423"/>
<polygon fill="#000000" stroke="#000000" points="158.0632,-111.5131 148.6327,-106.6843 152.9936,-116.34 158.0632,-111.5131"/>
</g>
<!-- bolt -->
<g id="node6" class="node">
<title>bolt</title>
<ellipse fill="none" stroke="#000000" cx="217.7468" cy="-90" rx="27" ry="18"/>
<text text-anchor="middle" x="217.7468" y="-86.3" font-family="Times,serif" font-size="14.00" fill="#000000">Bolt</text>
</g>
<!-- hie_kv&#45;&gt;bolt -->
<g id="edge5" class="edge">
<title>hie_kv&#45;&gt;bolt</title>
<path fill="none" stroke="#000000" d="M211.5622,-152.5194C212.5716,-142.3151 213.8488,-129.4039 214.9802,-117.9676"/>
<polygon fill="#000000" stroke="#000000" points="218.4647,-118.2955 215.9662,-107.9995 211.4987,-117.6063 218.4647,-118.2955"/>
</g>
<!-- sql_tuple -->
<g id="node7" class="node">
<title>sql_tuple</title>
<g id="a_node7"><a xlink:href="./docs/sql-tuple.md" xlink:title="SQL">
<ellipse fill="none" stroke="#000000" cx="324.7468" cy="-170.8701" rx="27.0966" ry="18"/>
<text text-anchor="middle" x="324.7468" y="-167.1701" font-family="Times,serif" font-size="14.00" fill="#000000">SQL</text>
</a>
</g>
</g>
<!-- mysql -->
<g id="node8" class="node">
<title>mysql</title>
<ellipse fill="none" stroke="#000000" cx="317.7468" cy="-90" rx="40.0939" ry="18"/>
<text text-anchor="middle" x="317.7468" y="-86.3" font-family="Times,serif" font-size="14.00" fill="#000000">MySQL</text>
</g>
<!-- sql_tuple&#45;&gt;mysql -->
<g id="edge6" class="edge">
<title>sql_tuple&#45;&gt;mysql</title>
<path fill="none" stroke="#000000" d="M323.1584,-152.5194C322.2751,-142.3151 321.1576,-129.4039 320.1677,-117.9676"/>
<polygon fill="#000000" stroke="#000000" points="323.6543,-117.6604 319.3048,-107.9995 316.6803,-118.2641 323.6543,-117.6604"/>
</g>
<!-- postgres -->
<g id="node9" class="node">
<title>postgres</title>
<ellipse fill="none" stroke="#000000" cx="429.7468" cy="-90" rx="53.8905" ry="18"/>
<text text-anchor="middle" x="429.7468" y="-86.3" font-family="Times,serif" font-size="14.00" fill="#000000">PostgreSQL</text>
</g>
<!-- sql_tuple&#45;&gt;postgres -->
<g id="edge7" class="edge">
<title>sql_tuple&#45;&gt;postgres</title>
<path fill="none" stroke="#000000" d="M342.5586,-157.1516C358.2877,-145.0372 381.5358,-127.1317 400.0709,-112.8562"/>
<polygon fill="#000000" stroke="#000000" points="402.4245,-115.4612 408.2114,-106.5864 398.1532,-109.9154 402.4245,-115.4612"/>
</g>
<!-- datastore -->
<g id="node10" class="node">
<title>datastore</title>
<ellipse fill="none" stroke="#000000" cx="417.7468" cy="-170.8701" rx="48.1667" ry="26.7407"/>
<text text-anchor="middle" x="417.7468" y="-174.6701" font-family="Times,serif" font-size="14.00" fill="#000000">Google</text>
<text text-anchor="middle" x="417.7468" y="-159.6701" font-family="Times,serif" font-size="14.00" fill="#000000">Datastore</text>
</g>
<!-- strict_tuple -->
<g id="node11" class="node">
<title>strict_tuple</title>
<g id="a_node11"><a xlink:href="./docs/tuple-strict.md" xlink:title="Tuple store">
<ellipse fill="#bbbbff" stroke="#bbbbff" cx="324.7468" cy="-260.6102" rx="50.8918" ry="18"/>
<text text-anchor="middle" x="324.7468" y="-256.9102" font-family="Times,serif" font-size="14.00" fill="#000000">Tuple store</text>
</a>
</g>
</g>
<!-- strict_tuple&#45;&gt;hie_kv -->
<g id="edge9" class="edge">
<title>strict_tuple&#45;&gt;hie_kv</title>
<path fill="none" stroke="#000000" d="M303.6541,-244.1505C285.759,-230.186 259.8717,-209.9849 239.8072,-194.3277"/>
<polygon fill="#000000" stroke="#000000" points="241.9186,-191.5357 231.8817,-188.143 237.6122,-197.0543 241.9186,-191.5357"/>
</g>
<!-- strict_tuple&#45;&gt;sql_tuple -->
<g id="edge10" class="edge">
<title>strict_tuple&#45;&gt;sql_tuple</title>
<path fill="none" stroke="#000000" d="M324.7468,-242.4499C324.7468,-230.043 324.7468,-213.3523 324.7468,-199.209"/>
<polygon fill="#000000" stroke="#000000" points="328.2469,-199.0033 324.7468,-189.0033 321.2469,-199.0033 328.2469,-199.0033"/>
</g>
<!-- strict_tuple&#45;&gt;datastore -->
<g id="edge8" class="edge">
<title>strict_tuple&#45;&gt;datastore</title>
<path fill="none" stroke="#000000" d="M342.6782,-243.3074C354.9938,-231.4234 371.6748,-215.3272 386.1846,-201.3259"/>
<polygon fill="#000000" stroke="#000000" points="388.7741,-203.6911 393.5398,-194.2286 383.9134,-198.6538 388.7741,-203.6911"/>
</g>
<!-- legacy_nosql -->
<g id="node12" class="node">
<title>legacy_nosql</title>
<ellipse fill="#dddddd" stroke="#dddddd" cx="657.7468" cy="-260.6102" rx="43.2674" ry="26.7407"/>
<text text-anchor="middle" x="657.7468" y="-264.4102" font-family="Times,serif" font-size="14.00" fill="#000000">NoSQL</text>
<text text-anchor="middle" x="657.7468" y="-249.4102" font-family="Times,serif" font-size="14.00" fill="#000000">(legacy)</text>
</g>
<!-- legacy_mongo -->
<g id="node13" class="node">
<title>legacy_mongo</title>
<ellipse fill="none" stroke="#c0c0c0" cx="532.7468" cy="-170.8701" rx="48.9926" ry="18"/>
<text text-anchor="middle" x="532.7468" y="-167.1701" font-family="Times,serif" font-size="14.00" fill="#000000">MongoDB</text>
</g>
<!-- legacy_nosql&#45;&gt;legacy_mongo -->
<g id="edge11" class="edge">
<title>legacy_nosql&#45;&gt;legacy_mongo</title>
<path fill="none" stroke="#c0c0c0" d="M629.3824,-240.2468C609.7177,-226.1291 583.5496,-207.3424 563.404,-192.8795"/>
<polygon fill="#c0c0c0" stroke="#c0c0c0" points="565.34,-189.9608 555.1755,-186.9721 561.2577,-195.6472 565.34,-189.9608"/>
</g>
<!-- legacy_elastic -->
<g id="node14" class="node">
<title>legacy_elastic</title>
<ellipse fill="none" stroke="#c0c0c0" cx="657.7468" cy="-170.8701" rx="58.4896" ry="18"/>
<text text-anchor="middle" x="657.7468" y="-167.1701" font-family="Times,serif" font-size="14.00" fill="#000000">ElasticSearch</text>
</g>
<!-- legacy_nosql&#45;&gt;legacy_elastic -->
<g id="edge12" class="edge">
<title>legacy_nosql&#45;&gt;legacy_elastic</title>
<path fill="none" stroke="#c0c0c0" d="M657.7468,-233.6852C657.7468,-222.7304 657.7468,-210.067 657.7468,-198.9927"/>
<polygon fill="#c0c0c0" stroke="#c0c0c0" points="661.2469,-198.9695 657.7468,-188.9696 654.2469,-198.9696 661.2469,-198.9695"/>
</g>
<!-- legacy_ouch -->
<g id="node15" class="node">
<title>legacy_ouch</title>
<ellipse fill="none" stroke="#c0c0c0" cx="774.7468" cy="-170.8701" rx="40.0939" ry="18"/>
<text text-anchor="middle" x="774.7468" y="-167.1701" font-family="Times,serif" font-size="14.00" fill="#000000">go&#45;kivik</text>
</g>
<!-- legacy_nosql&#45;&gt;legacy_ouch -->
<g id="edge13" class="edge">
<title>legacy_nosql&#45;&gt;legacy_ouch</title>
<path fill="none" stroke="#c0c0c0" d="M685.1781,-239.5701C703.5697,-225.4636 727.7328,-206.9303 746.3265,-192.6687"/>
<polygon fill="#c0c0c0" stroke="#c0c0c0" points="748.6323,-195.3112 754.4369,-186.4479 744.372,-189.7568 748.6323,-195.3112"/>
</g>
<!-- legacy_couch -->
<g id="node16" class="node">
<title>legacy_couch</title>
<ellipse fill="none" stroke="#c0c0c0" cx="719.7468" cy="-90" rx="46.2923" ry="18"/>
<text text-anchor="middle" x="719.7468" y="-86.3" font-family="Times,serif" font-size="14.00" fill="#000000">CouchDB</text>
</g>
<!-- legacy_ouch&#45;&gt;legacy_couch -->
<g id="edge14" class="edge">
<title>legacy_ouch&#45;&gt;legacy_couch</title>
<path fill="none" stroke="#c0c0c0" d="M762.8126,-153.3225C755.3891,-142.4072 745.7091,-128.1741 737.4073,-115.9673"/>
<polygon fill="#c0c0c0" stroke="#c0c0c0" points="740.1756,-113.8139 731.6577,-107.5134 734.3873,-117.7505 740.1756,-113.8139"/>
</g>
<!-- legacy_pouch -->
<g id="node17" class="node">
<title>legacy_pouch</title>
<ellipse fill="none" stroke="#c0c0c0" cx="828.7468" cy="-90" rx="44.6926" ry="18"/>
<text text-anchor="middle" x="828.7468" y="-86.3" font-family="Times,serif" font-size="14.00" fill="#000000">PouchDB</text>
</g>
<!-- legacy_ouch&#45;&gt;legacy_pouch -->
<g id="edge15" class="edge">
<title>legacy_ouch&#45;&gt;legacy_pouch</title>
<path fill="none" stroke="#c0c0c0" d="M786.464,-153.3225C793.7526,-142.4072 803.2566,-128.1741 811.4075,-115.9673"/>
<polygon fill="#c0c0c0" stroke="#c0c0c0" points="814.41,-117.7734 817.0525,-107.5134 808.5885,-113.8861 814.41,-117.7734"/>
</g>
</g>
</svg>
