<?xml version="1.0" encoding="UTF-8" standalone="no"?>
<!DOCTYPE svg PUBLIC "-//W3C//DTD SVG 1.1//EN"
 "http://www.w3.org/Graphics/SVG/1.1/DTD/svg11.dtd">
<!-- Generated by graphviz version 2.43.0 (0)
 -->
<!-- Title: DBs Pages: 1 -->
<svg width="1036pt" height="278pt"
 viewBox="0.00 0.00 1036.49 277.74" xmlns="http://www.w3.org/2000/svg" xmlns:xlink="http://www.w3.org/1999/xlink">
<g id="graph0" class="graph" transform="scale(1 1) rotate(0) translate(4 273.74)">
<title>DBs</title>
<polygon fill="white" stroke="transparent" points="-4,4 -4,-273.74 1032.49,-273.74 1032.49,4 -4,4"/>
<!-- flat_kv -->
<g id="node1" class="node">
<title>flat_kv</title>
<g id="a_node1"><a xlink:href="./docs/kv-flat.md" xlink:title="Flat KV">
<ellipse fill="#bbbbff" stroke="#bbbbff" cx="507.85" cy="-90" rx="45.49" ry="18"/>
<text text-anchor="middle" x="507.85" y="-86.3" font-family="Times,serif" font-size="14.00">Flat KV</text>
</a>
</g>
</g>
<!-- hie_kv -->
<g id="node2" class="node">
<title>hie_kv</title>
<g id="a_node2"><a xlink:href="./docs/kv-hierarchical.md" xlink:title="Hierarchical KV">
<ellipse fill="#bbbbff" stroke="#bbbbff" cx="407.85" cy="-170.87" rx="83.69" ry="18"/>
<text text-anchor="middle" x="407.85" y="-167.17" font-family="Times,serif" font-size="14.00">Hierarchical KV</text>
</a>
</g>
</g>
<!-- flat_kv&#45;&gt;hie_kv -->
<g id="edge1" class="edge">
<title>flat_kv&#45;&gt;hie_kv</title>
<path fill="none" stroke="black" d="M484.14,-105.47C468.15,-116.9 447.33,-133.1 431.39,-146.39"/>
<polygon fill="black" stroke="black" points="428.91,-143.9 423.55,-153.03 433.44,-149.24 428.91,-143.9"/>
</g>
<!-- hie_kv&#45;&gt;flat_kv -->
<g id="edge7" class="edge">
<title>hie_kv&#45;&gt;flat_kv</title>
<path fill="none" stroke="black" stroke-dasharray="5,2" d="M434.13,-153.55C449.91,-142.13 469.65,-126.72 484.82,-114.05"/>
<polygon fill="black" stroke="black" points="487.36,-116.48 492.72,-107.34 482.83,-111.15 487.36,-116.48"/>
</g>
<!-- strict_tuple -->
<g id="node7" class="node">
<title>strict_tuple</title>
<g id="a_node7"><a xlink:href="./docs/tuple-strict.md" xlink:title="Tuple store">
<ellipse fill="#bbbbff" stroke="#bbbbff" cx="325.85" cy="-251.74" rx="63.89" ry="18"/>
<text text-anchor="middle" x="325.85" y="-248.04" font-family="Times,serif" font-size="14.00">Tuple store</text>
</a>
</g>
</g>
<!-- hie_kv&#45;&gt;strict_tuple -->
<g id="edge6" class="edge">
<title>hie_kv&#45;&gt;strict_tuple</title>
<path fill="none" stroke="black" d="M390.46,-188.6C378.74,-199.86 363.13,-214.87 350.19,-227.32"/>
<polygon fill="black" stroke="black" points="347.71,-224.85 342.93,-234.31 352.56,-229.9 347.71,-224.85"/>
</g>
<!-- btree -->
<g id="node3" class="node">
<title>btree</title>
<ellipse fill="none" stroke="black" cx="377.85" cy="-18" rx="41.69" ry="18"/>
<text text-anchor="middle" x="377.85" y="-14.3" font-family="Times,serif" font-size="14.00">B&#45;Tree</text>
</g>
<!-- btree&#45;&gt;flat_kv -->
<g id="edge2" class="edge">
<title>btree&#45;&gt;flat_kv</title>
<path fill="none" stroke="black" d="M402.91,-32.5C422.8,-43.2 450.82,-58.29 472.91,-70.19"/>
<polygon fill="black" stroke="black" points="471.5,-73.41 481.97,-75.07 474.82,-67.24 471.5,-73.41"/>
</g>
<!-- leveldb -->
<g id="node4" class="node">
<title>leveldb</title>
<ellipse fill="none" stroke="black" cx="487.85" cy="-18" rx="50.09" ry="18"/>
<text text-anchor="middle" x="487.85" y="-14.3" font-family="Times,serif" font-size="14.00">LevelDB</text>
</g>
<!-- leveldb&#45;&gt;flat_kv -->
<g id="edge3" class="edge">
<title>leveldb&#45;&gt;flat_kv</title>
<path fill="none" stroke="black" d="M492.69,-35.95C494.91,-43.74 497.61,-53.18 500.11,-61.92"/>
<polygon fill="black" stroke="black" points="496.8,-63.07 502.91,-71.72 503.53,-61.15 496.8,-63.07"/>
</g>
<!-- badger -->
<g id="node5" class="node">
<title>badger</title>
<ellipse fill="none" stroke="black" cx="599.85" cy="-18" rx="44.39" ry="18"/>
<text text-anchor="middle" x="599.85" y="-14.3" font-family="Times,serif" font-size="14.00">Badger</text>
</g>
<!-- badger&#45;&gt;flat_kv -->
<g id="edge4" class="edge">
<title>badger&#45;&gt;flat_kv</title>
<path fill="none" stroke="black" d="M579.88,-34.19C567.07,-43.94 550.24,-56.74 536.07,-67.52"/>
<polygon fill="black" stroke="black" points="533.93,-64.76 528.09,-73.6 538.17,-70.33 533.93,-64.76"/>
</g>
<!-- pebble -->
<g id="node6" class="node">
<title>pebble</title>
<ellipse fill="none" stroke="black" cx="703.85" cy="-18" rx="42.49" ry="18"/>
<text text-anchor="middle" x="703.85" y="-14.3" font-family="Times,serif" font-size="14.00">Pebble</text>
</g>
<!-- pebble&#45;&gt;flat_kv -->
<g id="edge5" class="edge">
<title>pebble&#45;&gt;flat_kv</title>
<path fill="none" stroke="black" d="M672.36,-30.25C639.18,-42.1 586.74,-60.82 550.01,-73.94"/>
<polygon fill="black" stroke="black" points="548.81,-70.65 540.57,-77.31 551.16,-77.25 548.81,-70.65"/>
</g>
<!-- strict_tuple&#45;&gt;flat_kv -->
<g id="edge14" class="edge">
<title>strict_tuple&#45;&gt;flat_kv</title>
<path fill="none" stroke="black" stroke-dasharray="5,2" d="M388.74,-248.85C427.34,-244.11 474.3,-231.18 500.85,-197.74 518.47,-175.54 517.57,-141.87 513.97,-118.3"/>
<polygon fill="black" stroke="black" points="517.38,-117.49 512.18,-108.26 510.48,-118.72 517.38,-117.49"/>
</g>
<!-- bolt -->
<g id="node8" class="node">
<title>bolt</title>
<ellipse fill="none" stroke="black" cx="323.85" cy="-90" rx="29.8" ry="18"/>
<text text-anchor="middle" x="323.85" y="-86.3" font-family="Times,serif" font-size="14.00">Bolt</text>
</g>
<!-- bolt&#45;&gt;hie_kv -->
<g id="edge8" class="edge">
<title>bolt&#45;&gt;hie_kv</title>
<path fill="none" stroke="black" d="M339.25,-105.47C351.32,-116.8 368.37,-132.8 382.45,-146.02"/>
<polygon fill="black" stroke="black" points="380.23,-148.74 389.91,-153.03 385.02,-143.64 380.23,-148.74"/>
</g>
<!-- bbolt -->
<g id="node9" class="node">
<title>bbolt</title>
<ellipse fill="none" stroke="black" cx="407.85" cy="-90" rx="36.29" ry="18"/>
<text text-anchor="middle" x="407.85" y="-86.3" font-family="Times,serif" font-size="14.00">BBolt</text>
</g>
<!-- bbolt&#45;&gt;hie_kv -->
<g id="edge9" class="edge">
<title>bbolt&#45;&gt;hie_kv</title>
<path fill="none" stroke="black" d="M407.85,-108.11C407.85,-118.14 407.85,-131.03 407.85,-142.45"/>
<polygon fill="black" stroke="black" points="404.35,-142.79 407.85,-152.79 411.35,-142.79 404.35,-142.79"/>
</g>
<!-- sql_tuple -->
<g id="node10" class="node">
<title>sql_tuple</title>
<g id="a_node10"><a xlink:href="./docs/sql-tuple.md" xlink:title="SQL">
<ellipse fill="none" stroke="black" cx="134.85" cy="-170.87" rx="30.59" ry="18"/>
<text text-anchor="middle" x="134.85" y="-167.17" font-family="Times,serif" font-size="14.00">SQL</text>
</a>
</g>
</g>
<!-- sql_tuple&#45;&gt;strict_tuple -->
<g id="edge10" class="edge">
<title>sql_tuple&#45;&gt;strict_tuple</title>
<path fill="none" stroke="black" d="M153.32,-185.49C159.63,-189.77 166.86,-194.27 173.85,-197.74 205.22,-213.31 242.31,-226.34 271.99,-235.58"/>
<polygon fill="black" stroke="black" points="271.17,-238.99 281.76,-238.57 273.22,-232.3 271.17,-238.99"/>
</g>
<!-- mysql -->
<g id="node11" class="node">
<title>mysql</title>
<ellipse fill="none" stroke="black" cx="44.85" cy="-90" rx="44.69" ry="18"/>
<text text-anchor="middle" x="44.85" y="-86.3" font-family="Times,serif" font-size="14.00">MySQL</text>
</g>
<!-- mysql&#45;&gt;sql_tuple -->
<g id="edge11" class="edge">
<title>mysql&#45;&gt;sql_tuple</title>
<path fill="none" stroke="black" d="M62.63,-106.58C76.29,-118.55 95.3,-135.22 110.39,-148.44"/>
<polygon fill="black" stroke="black" points="108.49,-151.43 118.32,-155.38 113.1,-146.16 108.49,-151.43"/>
</g>
<!-- postgres -->
<g id="node12" class="node">
<title>postgres</title>
<ellipse fill="none" stroke="black" cx="172.85" cy="-90" rx="65.79" ry="18"/>
<text text-anchor="middle" x="172.85" y="-86.3" font-family="Times,serif" font-size="14.00">PostgreSQL</text>
</g>
<!-- postgres&#45;&gt;sql_tuple -->
<g id="edge12" class="edge">
<title>postgres&#45;&gt;sql_tuple</title>
<path fill="none" stroke="black" d="M164.6,-108.11C159.55,-118.59 152.99,-132.2 147.32,-143.98"/>
<polygon fill="black" stroke="black" points="144,-142.8 142.81,-153.33 150.31,-145.84 144,-142.8"/>
</g>
<!-- datastore -->
<g id="node13" class="node">
<title>datastore</title>
<ellipse fill="none" stroke="black" cx="244.85" cy="-170.87" rx="61.54" ry="26.74"/>
<text text-anchor="middle" x="244.85" y="-174.67" font-family="Times,serif" font-size="14.00">Google</text>
<text text-anchor="middle" x="244.85" y="-159.67" font-family="Times,serif" font-size="14.00">Datastore</text>
</g>
<!-- datastore&#45;&gt;strict_tuple -->
<g id="edge13" class="edge">
<title>datastore&#45;&gt;strict_tuple</title>
<path fill="none" stroke="black" d="M269.59,-195.96C279.67,-205.78 291.3,-217.1 301.36,-226.9"/>
<polygon fill="black" stroke="black" points="299.09,-229.57 308.69,-234.04 303.97,-224.55 299.09,-229.57"/>
</g>
<!-- legacy_nosql -->
<g id="node14" class="node">
<title>legacy_nosql</title>
<ellipse fill="#dddddd" stroke="#dddddd" cx="815.85" cy="-170.87" rx="51.74" ry="26.74"/>
<text text-anchor="middle" x="815.85" y="-174.67" font-family="Times,serif" font-size="14.00">NoSQL</text>
<text text-anchor="middle" x="815.85" y="-159.67" font-family="Times,serif" font-size="14.00">(legacy)</text>
</g>
<!-- legacy_mongo -->
<g id="node15" class="node">
<title>legacy_mongo</title>
<ellipse fill="none" stroke="grey" cx="666.85" cy="-90" rx="56.59" ry="18"/>
<text text-anchor="middle" x="666.85" y="-86.3" font-family="Times,serif" font-size="14.00">MongoDB</text>
</g>
<!-- legacy_mongo&#45;&gt;legacy_nosql -->
<g id="edge15" class="edge">
<title>legacy_mongo&#45;&gt;legacy_nosql</title>
<path fill="none" stroke="grey" d="M694.87,-105.83C716.49,-117.28 746.81,-133.33 771.69,-146.5"/>
<polygon fill="grey" stroke="grey" points="770.11,-149.62 780.58,-151.2 773.38,-143.43 770.11,-149.62"/>
</g>
<!-- legacy_elastic -->
<g id="node16" class="node">
<title>legacy_elastic</title>
<ellipse fill="none" stroke="grey" cx="815.85" cy="-90" rx="74.99" ry="18"/>
<text text-anchor="middle" x="815.85" y="-86.3" font-family="Times,serif" font-size="14.00">ElasticSearch</text>
</g>
<!-- legacy_elastic&#45;&gt;legacy_nosql -->
<g id="edge16" class="edge">
<title>legacy_elastic&#45;&gt;legacy_nosql</title>
<path fill="none" stroke="grey" d="M815.85,-108.11C815.85,-115.6 815.85,-124.69 815.85,-133.57"/>
<polygon fill="grey" stroke="grey" points="812.35,-133.79 815.85,-143.79 819.35,-133.79 812.35,-133.79"/>
</g>
<!-- legacy_ouch -->
<g id="node17" class="node">
<title>legacy_ouch</title>
<ellipse fill="none" stroke="grey" cx="955.85" cy="-90" rx="46.59" ry="18"/>
<text text-anchor="middle" x="955.85" y="-86.3" font-family="Times,serif" font-size="14.00">go&#45;kivik</text>
</g>
<!-- legacy_ouch&#45;&gt;legacy_nosql -->
<g id="edge17" class="edge">
<title>legacy_ouch&#45;&gt;legacy_nosql</title>
<path fill="none" stroke="grey" d="M930.49,-105.28C910.51,-116.54 882.2,-132.49 858.71,-145.72"/>
<polygon fill="grey" stroke="grey" points="856.96,-142.69 849.97,-150.65 860.4,-148.79 856.96,-142.69"/>
</g>
<!-- legacy_couch -->
<g id="node18" class="node">
<title>legacy_couch</title>
<ellipse fill="none" stroke="grey" cx="850.85" cy="-18" rx="53.89" ry="18"/>
<text text-anchor="middle" x="850.85" y="-14.3" font-family="Times,serif" font-size="14.00">CouchDB</text>
</g>
<!-- legacy_couch&#45;&gt;legacy_ouch -->
<g id="edge18" class="edge">
<title>legacy_couch&#45;&gt;legacy_ouch</title>
<path fill="none" stroke="grey" d="M873.89,-34.36C888.86,-44.35 908.57,-57.48 924.9,-68.37"/>
<polygon fill="grey" stroke="grey" points="923.32,-71.52 933.58,-74.15 927.2,-65.69 923.32,-71.52"/>
</g>
<!-- legacy_pouch -->
<g id="node19" class="node">
<title>legacy_pouch</title>
<ellipse fill="none" stroke="grey" cx="975.85" cy="-18" rx="52.79" ry="18"/>
<text text-anchor="middle" x="975.85" y="-14.3" font-family="Times,serif" font-size="14.00">PouchDB</text>
</g>
<!-- legacy_pouch&#45;&gt;legacy_ouch -->
<g id="edge19" class="edge">
<title>legacy_pouch&#45;&gt;legacy_ouch</title>
<path fill="none" stroke="grey" d="M971,-35.95C968.78,-43.74 966.08,-53.18 963.58,-61.92"/>
<polygon fill="grey" stroke="grey" points="960.16,-61.15 960.78,-71.72 966.89,-63.07 960.16,-61.15"/>
</g>
</g>
</svg>
