<?xml version="1.0" encoding="UTF-8" standalone="no"?>
<!DOCTYPE svg PUBLIC "-//W3C//DTD SVG 1.1//EN"
 "http://www.w3.org/Graphics/SVG/1.1/DTD/svg11.dtd">
<!-- Generated by graphviz version 2.38.0 (20140413.2041)
 -->
<!-- Title: DBs Pages: 1 -->
<svg width="274pt" height="260pt"
 viewBox="0.00 0.00 274.14 260.00" xmlns="http://www.w3.org/2000/svg" xmlns:xlink="http://www.w3.org/1999/xlink">
<g id="graph0" class="graph" transform="scale(1 1) rotate(0) translate(4 256)">
<title>DBs</title>
<polygon fill="white" stroke="none" points="-4,4 -4,-256 270.144,-256 270.144,4 -4,4"/>
<!-- flat_kv -->
<g id="node1" class="node"><title>flat_kv</title>
<g id="a_node1"><a xlink:href="./docs/kv-flat.md" xlink:title="Flat KV">
<ellipse fill="none" stroke="black" cx="132.747" cy="-90" rx="39.7935" ry="18"/>
<text text-anchor="middle" x="132.747" y="-86.3" font-family="Times,serif" font-size="14.00">Flat KV</text>
</a>
</g>
</g>
<!-- btree -->
<g id="node2" class="node"><title>btree</title>
<ellipse fill="none" stroke="black" cx="35.7468" cy="-18" rx="35.9954" ry="18"/>
<text text-anchor="middle" x="35.7468" y="-14.3" font-family="Times,serif" font-size="14.00">B&#45;Tree</text>
</g>
<!-- flat_kv&#45;&gt;btree -->
<g id="edge1" class="edge"><title>flat_kv&#45;&gt;btree</title>
<path fill="none" stroke="black" d="M112.176,-74.1548C98.0049,-63.9285 79.0088,-50.22 63.5003,-39.0283"/>
<polygon fill="black" stroke="black" points="65.4532,-36.1214 55.296,-33.1076 61.3568,-41.7977 65.4532,-36.1214"/>
</g>
<!-- leveldb -->
<g id="node3" class="node"><title>leveldb</title>
<ellipse fill="none" stroke="black" cx="132.747" cy="-18" rx="42.7926" ry="18"/>
<text text-anchor="middle" x="132.747" y="-14.3" font-family="Times,serif" font-size="14.00">LevelDB</text>
</g>
<!-- flat_kv&#45;&gt;leveldb -->
<g id="edge2" class="edge"><title>flat_kv&#45;&gt;leveldb</title>
<path fill="none" stroke="black" d="M132.747,-71.6966C132.747,-63.9827 132.747,-54.7125 132.747,-46.1124"/>
<polygon fill="black" stroke="black" points="136.247,-46.1043 132.747,-36.1043 129.247,-46.1044 136.247,-46.1043"/>
</g>
<!-- badger -->
<g id="node4" class="node"><title>badger</title>
<ellipse fill="none" stroke="black" cx="229.747" cy="-18" rx="36.2938" ry="18"/>
<text text-anchor="middle" x="229.747" y="-14.3" font-family="Times,serif" font-size="14.00">Badger</text>
</g>
<!-- flat_kv&#45;&gt;badger -->
<g id="edge3" class="edge"><title>flat_kv&#45;&gt;badger</title>
<path fill="none" stroke="black" d="M153.318,-74.1548C167.395,-63.9962 186.233,-50.4014 201.685,-39.2509"/>
<polygon fill="black" stroke="black" points="203.808,-42.0351 209.869,-33.345 199.712,-36.3588 203.808,-42.0351"/>
</g>
<!-- hie_kv -->
<g id="node5" class="node"><title>hie_kv</title>
<g id="a_node5"><a xlink:href="./docs/kv-hierarchical.md" xlink:title="Hierarchical KV">
<ellipse fill="none" stroke="black" cx="174.747" cy="-162" rx="69.5877" ry="18"/>
<text text-anchor="middle" x="174.747" y="-158.3" font-family="Times,serif" font-size="14.00">Hierarchical KV</text>
</a>
</g>
</g>
<!-- hie_kv&#45;&gt;flat_kv -->
<g id="edge4" class="edge"><title>hie_kv&#45;&gt;flat_kv</title>
<path fill="none" stroke="black" d="M164.58,-144.055C159.627,-135.801 153.568,-125.701 148.069,-116.538"/>
<polygon fill="black" stroke="black" points="150.966,-114.563 142.82,-107.789 144.964,-118.165 150.966,-114.563"/>
</g>
<!-- bolt -->
<g id="node6" class="node"><title>bolt</title>
<ellipse fill="none" stroke="black" cx="217.747" cy="-90" rx="27" ry="18"/>
<text text-anchor="middle" x="217.747" y="-86.3" font-family="Times,serif" font-size="14.00">Bolt</text>
</g>
<!-- hie_kv&#45;&gt;bolt -->
<g id="edge5" class="edge"><title>hie_kv&#45;&gt;bolt</title>
<path fill="none" stroke="black" d="M185.156,-144.055C190.43,-135.469 196.93,-124.888 202.734,-115.439"/>
<polygon fill="black" stroke="black" points="205.771,-117.182 208.023,-106.829 199.807,-113.518 205.771,-117.182"/>
</g>
<!-- strict_tuple -->
<g id="node7" class="node"><title>strict_tuple</title>
<g id="a_node7"><a xlink:href="./docs/tuple-strict.md" xlink:title="Tuple store">
<ellipse fill="none" stroke="black" cx="174.747" cy="-234" rx="50.8918" ry="18"/>
<text text-anchor="middle" x="174.747" y="-230.3" font-family="Times,serif" font-size="14.00">Tuple store</text>
</a>
</g>
</g>
<!-- strict_tuple&#45;&gt;hie_kv -->
<g id="edge6" class="edge"><title>strict_tuple&#45;&gt;hie_kv</title>
<path fill="none" stroke="black" d="M174.747,-215.697C174.747,-207.983 174.747,-198.712 174.747,-190.112"/>
<polygon fill="black" stroke="black" points="178.247,-190.104 174.747,-180.104 171.247,-190.104 178.247,-190.104"/>
</g>
</g>
</svg>
