<?xml version="1.0" encoding="UTF-8" standalone="no"?>
<!DOCTYPE svg PUBLIC "-//W3C//DTD SVG 1.1//EN"
 "http://www.w3.org/Graphics/SVG/1.1/DTD/svg11.dtd">
<!-- Generated by graphviz version 2.38.0 (20140413.2041)
 -->
<!-- Title: DBs Pages: 1 -->
<svg width="315pt" height="260pt"
 viewBox="0.00 0.00 314.54 260.00" xmlns="http://www.w3.org/2000/svg" xmlns:xlink="http://www.w3.org/1999/xlink">
<g id="graph0" class="graph" transform="scale(1 1) rotate(0) translate(4 256)">
<title>DBs</title>
<polygon fill="white" stroke="none" points="-4,4 -4,-256 310.543,-256 310.543,4 -4,4"/>
<!-- btree -->
<g id="node1" class="node"><title>btree</title>
<ellipse fill="none" stroke="black" cx="35.7468" cy="-18" rx="35.9954" ry="18"/>
<text text-anchor="middle" x="35.7468" y="-14.3" font-family="Times,serif" font-size="14.00">B&#45;Tree</text>
</g>
<!-- leveldb -->
<g id="node2" class="node"><title>leveldb</title>
<ellipse fill="none" stroke="black" cx="132.747" cy="-18" rx="42.7926" ry="18"/>
<text text-anchor="middle" x="132.747" y="-14.3" font-family="Times,serif" font-size="14.00">LevelDB</text>
</g>
<!-- flat_kv -->
<g id="node3" class="node"><title>flat_kv</title>
<g id="a_node3"><a xlink:href="./docs/kv-flat.md" xlink:title="Flat KV">
<ellipse fill="none" stroke="black" cx="83.7468" cy="-90" rx="39.7935" ry="18"/>
<text text-anchor="middle" x="83.7468" y="-86.3" font-family="Times,serif" font-size="14.00">Flat KV</text>
</a>
</g>
</g>
<!-- flat_kv&#45;&gt;btree -->
<g id="edge1" class="edge"><title>flat_kv&#45;&gt;btree</title>
<path fill="none" stroke="black" d="M72.3715,-72.411C66.5133,-63.8677 59.2521,-53.2785 52.7439,-43.7874"/>
<polygon fill="black" stroke="black" points="55.5824,-41.7379 47.0405,-35.4699 49.8093,-45.6966 55.5824,-41.7379"/>
</g>
<!-- flat_kv&#45;&gt;leveldb -->
<g id="edge2" class="edge"><title>flat_kv&#45;&gt;leveldb</title>
<path fill="none" stroke="black" d="M95.3591,-72.411C101.339,-63.8677 108.752,-53.2785 115.396,-43.7874"/>
<polygon fill="black" stroke="black" points="118.351,-45.6694 121.218,-35.4699 112.616,-41.6552 118.351,-45.6694"/>
</g>
<!-- hie_kv -->
<g id="node4" class="node"><title>hie_kv</title>
<g id="a_node4"><a xlink:href="./docs/kv-hierarchical.md" xlink:title="Hierarchical KV">
<ellipse fill="none" stroke="black" cx="125.747" cy="-162" rx="69.5877" ry="18"/>
<text text-anchor="middle" x="125.747" y="-158.3" font-family="Times,serif" font-size="14.00">Hierarchical KV</text>
</a>
</g>
</g>
<!-- hie_kv&#45;&gt;flat_kv -->
<g id="edge4" class="edge"><title>hie_kv&#45;&gt;flat_kv</title>
<path fill="none" stroke="black" d="M115.58,-144.055C110.627,-135.801 104.568,-125.701 99.0695,-116.538"/>
<polygon fill="black" stroke="black" points="101.966,-114.563 93.8202,-107.789 95.964,-118.165 101.966,-114.563"/>
</g>
<!-- bolt -->
<g id="node5" class="node"><title>bolt</title>
<ellipse fill="none" stroke="black" cx="168.747" cy="-90" rx="27" ry="18"/>
<text text-anchor="middle" x="168.747" y="-86.3" font-family="Times,serif" font-size="14.00">Bolt</text>
</g>
<!-- hie_kv&#45;&gt;bolt -->
<g id="edge3" class="edge"><title>hie_kv&#45;&gt;bolt</title>
<path fill="none" stroke="black" d="M136.156,-144.055C141.43,-135.469 147.93,-124.888 153.734,-115.439"/>
<polygon fill="black" stroke="black" points="156.771,-117.182 159.023,-106.829 150.807,-113.518 156.771,-117.182"/>
</g>
<!-- strict_tuple -->
<g id="node6" class="node"><title>strict_tuple</title>
<g id="a_node6"><a xlink:href="./docs/tuple-strict.md" xlink:title="Tuple store">
<ellipse fill="none" stroke="black" cx="192.747" cy="-234" rx="50.8918" ry="18"/>
<text text-anchor="middle" x="192.747" y="-230.3" font-family="Times,serif" font-size="14.00">Tuple store</text>
</a>
</g>
</g>
<!-- strict_tuple&#45;&gt;hie_kv -->
<g id="edge5" class="edge"><title>strict_tuple&#45;&gt;hie_kv</title>
<path fill="none" stroke="black" d="M177.207,-216.765C168.788,-207.969 158.221,-196.928 148.856,-187.144"/>
<polygon fill="black" stroke="black" points="151.11,-184.437 141.667,-179.633 146.053,-189.278 151.11,-184.437"/>
</g>
<!-- cassandra -->
<g id="node7" class="node"><title>cassandra</title>
<ellipse fill="none" stroke="black" cx="259.747" cy="-162" rx="46.5926" ry="18"/>
<text text-anchor="middle" x="259.747" y="-158.3" font-family="Times,serif" font-size="14.00">Cassandra</text>
</g>
<!-- strict_tuple&#45;&gt;cassandra -->
<g id="edge6" class="edge"><title>strict_tuple&#45;&gt;cassandra</title>
<path fill="none" stroke="black" d="M208.286,-216.765C216.912,-207.753 227.792,-196.385 237.325,-186.426"/>
<polygon fill="black" stroke="black" points="239.905,-188.792 244.292,-179.147 234.848,-183.951 239.905,-188.792"/>
</g>
</g>
</svg>
